<svg xmlns="http://www.w3.org/2000/svg" xmlns:xlink="http://www.w3.org/1999/xlink" width="1254" zoomAndPan="magnify" viewBox="0 0 940.5 940.499971" height="1254" preserveAspectRatio="xMidYMid meet" version="1.0"><defs><g/><clipPath id="ff65517d1e"><path d="M 148 424 L 940 424 L 940 933 L 148 933 Z M 148 424 " clip-rule="nonzero"/></clipPath></defs><path fill="#ffffff" d="M 0 0 L 940 0 L 940 940 L 0 940 Z M 0 0 " fill-opacity="1" fill-rule="nonzero"/><path fill="#ffffff" d="M 0 0 L 940 0 L 940 940 L 0 940 Z M 0 0 " fill-opacity="1" fill-rule="nonzero"/><g fill="#3e5e60" fill-opacity="1"><g transform="translate(-25.219502, 474.979354)"><g><path d="M 423.265625 -231.578125 C 423.265625 -204.992188 418.835938 -180.503906 409.984375 -158.109375 L 426.765625 -158.109375 C 461.285156 -158.109375 486.238281 -146.914062 501.625 -124.53125 L 501.625 -402.28125 L -14 -402.28125 L -14 -449.15625 L 642.953125 -449.15625 C 665.804688 -449.15625 682.128906 -439.128906 691.921875 -419.078125 C 688.191406 -440.535156 686.328125 -463.15625 686.328125 -486.9375 L 686.328125 -507.921875 L 739.5 -507.921875 L 739.5 -449.15625 L 818.5625 -449.15625 L 818.5625 -402.28125 L 739.5 -402.28125 L 739.5 0 L 685.625 0 L 685.625 -345.609375 C 685.625 -363.804688 682.359375 -377.800781 675.828125 -387.59375 C 669.304688 -397.382812 657.648438 -402.28125 640.859375 -402.28125 L 555.5 -402.28125 L 555.5 0 L 501.625 0 L 501.625 -11.1875 C 501.625 -77.882812 475.972656 -111.234375 424.671875 -111.234375 L 384.09375 -111.234375 C 351.445312 -70.660156 304.804688 -50.375 244.171875 -50.375 C 183.535156 -50.375 136.539062 -69.378906 103.1875 -107.390625 C 69.84375 -145.398438 53.171875 -195.191406 53.171875 -256.765625 C 53.171875 -281.015625 54.800781 -305.734375 58.0625 -330.921875 L 111.234375 -330.921875 C 107.972656 -303.867188 106.34375 -278.914062 106.34375 -256.0625 C 106.34375 -206.625 118.46875 -167.910156 142.71875 -139.921875 C 166.976562 -111.941406 200.5625 -97.953125 243.46875 -97.953125 C 283.113281 -97.953125 313.894531 -110.191406 335.8125 -134.671875 C 357.738281 -159.160156 368.703125 -191.460938 368.703125 -231.578125 C 368.703125 -255.828125 363.921875 -275.53125 354.359375 -290.6875 C 344.796875 -305.851562 330.222656 -313.4375 310.640625 -313.4375 C 293.847656 -313.4375 280.785156 -307.367188 271.453125 -295.234375 C 262.128906 -283.109375 257.46875 -267.484375 257.46875 -248.359375 C 257.46875 -234.835938 259.796875 -217.816406 264.453125 -197.296875 L 215.484375 -197.296875 C 208.953125 -213.617188 205.6875 -232.039062 205.6875 -252.5625 C 205.6875 -282.882812 215.015625 -308.421875 233.671875 -329.171875 C 252.328125 -349.929688 277.75 -360.3125 309.9375 -360.3125 C 344.914062 -360.3125 372.546875 -347.945312 392.828125 -323.21875 C 413.117188 -298.5 423.265625 -267.953125 423.265625 -231.578125 Z M 423.265625 -231.578125 "/></g></g></g><g clip-path="url(#ff65517d1e)"><g fill="#000000" fill-opacity="1"><g transform="translate(162.780533, 932.183186)"><g><path d="M 423.265625 -231.578125 C 423.265625 -204.992188 418.835938 -180.503906 409.984375 -158.109375 L 426.765625 -158.109375 C 461.285156 -158.109375 486.238281 -146.914062 501.625 -124.53125 L 501.625 -402.28125 L -14 -402.28125 L -14 -449.15625 L 642.953125 -449.15625 C 665.804688 -449.15625 682.128906 -439.128906 691.921875 -419.078125 C 688.191406 -440.535156 686.328125 -463.15625 686.328125 -486.9375 L 686.328125 -507.921875 L 739.5 -507.921875 L 739.5 -449.15625 L 818.5625 -449.15625 L 818.5625 -402.28125 L 739.5 -402.28125 L 739.5 0 L 685.625 0 L 685.625 -345.609375 C 685.625 -363.804688 682.359375 -377.800781 675.828125 -387.59375 C 669.304688 -397.382812 657.648438 -402.28125 640.859375 -402.28125 L 555.5 -402.28125 L 555.5 0 L 501.625 0 L 501.625 -11.1875 C 501.625 -77.882812 475.972656 -111.234375 424.671875 -111.234375 L 384.09375 -111.234375 C 351.445312 -70.660156 304.804688 -50.375 244.171875 -50.375 C 183.535156 -50.375 136.539062 -69.378906 103.1875 -107.390625 C 69.84375 -145.398438 53.171875 -195.191406 53.171875 -256.765625 C 53.171875 -281.015625 54.800781 -305.734375 58.0625 -330.921875 L 111.234375 -330.921875 C 107.972656 -303.867188 106.34375 -278.914062 106.34375 -256.0625 C 106.34375 -206.625 118.46875 -167.910156 142.71875 -139.921875 C 166.976562 -111.941406 200.5625 -97.953125 243.46875 -97.953125 C 283.113281 -97.953125 313.894531 -110.191406 335.8125 -134.671875 C 357.738281 -159.160156 368.703125 -191.460938 368.703125 -231.578125 C 368.703125 -255.828125 363.921875 -275.53125 354.359375 -290.6875 C 344.796875 -305.851562 330.222656 -313.4375 310.640625 -313.4375 C 293.847656 -313.4375 280.785156 -307.367188 271.453125 -295.234375 C 262.128906 -283.109375 257.46875 -267.484375 257.46875 -248.359375 C 257.46875 -234.835938 259.796875 -217.816406 264.453125 -197.296875 L 215.484375 -197.296875 C 208.953125 -213.617188 205.6875 -232.039062 205.6875 -252.5625 C 205.6875 -282.882812 215.015625 -308.421875 233.671875 -329.171875 C 252.328125 -349.929688 277.75 -360.3125 309.9375 -360.3125 C 344.914062 -360.3125 372.546875 -347.945312 392.828125 -323.21875 C 413.117188 -298.5 423.265625 -267.953125 423.265625 -231.578125 Z M 423.265625 -231.578125 "/></g></g></g></g></svg>